# xmcd CD database file
#
# Track frame offsets:
#	150
#	15652
#	27845
#	40583
#	52708
#	69178
#	83758
#	97303
#	107624
#	121121
#
# Disc length: 1805 seconds
#
# Revision: 1
# Processed by: cddbd v1.5.2PL0 Copyright (c) Steve Scherf et al.
# Submitted via: CDex 1.51
#
DISCID=6b070b0a
DTITLE=Clay Dustin - I'll Take That Job
DYEAR=2011
DGENRE=Country
TTITLE0=Beautiful Girl
TTITLE1=Unlucky Tonight
TTITLE2=Deep Blue Me
TTITLE3=I'll Take That Job Paycheck Shoved
TTITLE4=Too Much Tequila
TTITLE5=Cotton To Satin
TTITLE6=Queen Of The Dairy King
TTITLE7=Too Many Chiefs And Not Enough Indians
TTITLE8=If These Walls Could Talk
TTITLE9=Am I Blue
EXTD=YEAR: 2011
EXTT0=
EXTT1=
EXTT2=
EXTT3=
EXTT4=
EXTT5=
EXTT6=
EXTT7=
EXTT8=
EXTT9=
PLAYORDER=
